<?xml version="1.0" standalone="no"?>
<!DOCTYPE svg PUBLIC "-//W3C//DTD SVG 20010904//EN"
 "http://www.w3.org/TR/2001/REC-SVG-20010904/DTD/svg10.dtd">
<svg version="1.0" xmlns="http://www.w3.org/2000/svg"
 width="96.000000pt" height="96.000000pt" viewBox="0 0 96.000000 96.000000"
 preserveAspectRatio="xMidYMid meet">
<metadata>
Created by potrace 1.11, written by Peter Selinger 2001-2013
</metadata>
<g transform="translate(0.000000,96.000000) scale(0.100000,-0.100000)"
fill="#000000" stroke="none">
<path d="M0 480 l0 -480 34 0 c41 0 124 34 148 60 10 11 18 33 18 50 0 16 5
30 10 30 15 0 12 -35 -9 -90 -11 -27 -15 -50 -10 -50 5 0 9 4 9 8 0 5 12 14
27 21 26 12 42 3 43 -21 0 -5 11 -8 24 -8 21 0 24 5 23 27 -1 16 3 28 11 29 6
1 16 2 21 3 5 0 14 13 19 29 l10 27 1 -27 c1 -34 -2 -44 -11 -41 -4 2 -5 -4
-2 -12 8 -20 -11 -19 -32 3 -17 16 -18 16 -11 -1 4 -10 7 -23 7 -27 0 -5 99
-9 220 -9 213 0 220 0 210 19 -19 35 -10 45 10 13 l20 -33 85 0 85 0 0 480 0
480 -480 0 -480 0 0 -480z m372 404 c-18 -8 -35 -21 -38 -29 -4 -8 -12 -15
-19 -15 -8 0 -17 -5 -21 -12 -4 -7 -3 -8 4 -4 7 4 12 5 12 1 0 -3 -12 -10 -26
-15 -19 -7 -24 -15 -19 -29 6 -19 -28 -71 -40 -59 -4 3 3 16 14 27 11 11 17
23 12 25 -9 6 -51 -47 -51 -64 0 -5 -4 -10 -9 -10 -4 0 -13 -15 -19 -32 -8
-23 -10 -25 -7 -7 2 14 16 51 30 81 27 59 99 125 160 146 44 15 55 13 17 -4z
m299 -36 c60 -43 63 -47 93 -106 28 -55 31 -66 17 -58 -5 4 -7 -3 -4 -14 3
-11 10 -17 16 -13 7 4 8 -8 3 -35 -3 -23 -2 -42 3 -42 11 0 1 -191 -14 -265
-4 -16 -8 -41 -10 -55 -2 -14 -8 -24 -14 -22 -6 1 -11 -3 -11 -9 0 -5 -14 -24
-31 -42 -23 -23 -29 -26 -24 -12 15 41 27 207 16 218 -8 8 -11 8 -11 -1 0 -9
-5 -9 -20 -2 -64 32 -60 33 -54 -3 5 -32 5 -32 -12 -9 -21 28 -34 28 -34 0 0
-21 0 -21 -20 2 -11 13 -20 29 -20 37 0 15 -19 18 -21 3 -1 -5 -3 -14 -4 -20
-1 -5 -3 -18 -4 -27 -1 -15 -3 -15 -16 3 -15 19 -15 19 -9 -1 3 -11 -2 -8 -11
9 -27 46 -32 236 -10 349 16 84 20 92 41 93 16 1 24 -4 24 -15 0 -14 2 -14 10
-1 7 12 11 10 19 -10 8 -20 10 -21 10 -6 1 13 6 17 21 13 17 -4 19 -1 16 34
-4 48 7 49 65 7z m-251 -188 c-7 -53 -8 -53 -9 -13 -1 38 7 78 14 71 2 -2 0
-28 -5 -58z m-204 24 c-4 -9 -9 -15 -11 -12 -3 3 -3 13 1 22 4 9 9 15 11 12 3
-3 3 -13 -1 -22z m-59 -86 c-3 -7 -5 -2 -5 12 0 14 2 19 5 13 2 -7 2 -19 0
-25z m143 -202 c0 -2 -7 -6 -15 -10 -8 -3 -15 -1 -15 4 0 6 7 10 15 10 8 0 15
-2 15 -4z m-11 -86 c11 -24 11 -24 -3 -6 -9 11 -16 24 -16 30 0 12 5 7 19 -24z"/>
<path d="M571 734 c0 -11 3 -14 6 -6 3 7 2 16 -1 19 -3 4 -6 -2 -5 -13z"/>
<path d="M532 575 c0 -16 2 -22 5 -12 2 9 2 23 0 30 -3 6 -5 -1 -5 -18z"/>
<path d="M772 370 c0 -19 2 -27 5 -17 2 9 2 25 0 35 -3 9 -5 1 -5 -18z"/>
</g>
</svg>
